<?xml version="1.0" ?><!DOCTYPE svg  PUBLIC '-//W3C//DTD SVG 1.1//EN'  'http://www.w3.org/Graphics/SVG/1.1/DTD/svg11.dtd'><svg height="8.4666mm" style="shape-rendering:geometricPrecision; text-rendering:geometricPrecision; image-rendering:optimizeQuality; fill-rule:evenodd; clip-rule:evenodd" version="1.1" viewBox="0 0 846.66 846.66" width="8.4666mm" xml:space="preserve" xmlns="http://www.w3.org/2000/svg" xmlns:xlink="http://www.w3.org/1999/xlink"><defs><style type="text/css">
   <![CDATA[
    .fil0 {fill:black;fill-rule:nonzero}
   ]]>
  </style></defs><g id="Layer_x0020_1"><path class="fil0" d="M457.46 602.19l0 -108.18 -402.58 -0.06c-18.39,0 -27.94,-22.58 -14.48,-35.66l422.31 -410.79c12.67,-14.03 36.41,-5.3 36.41,13.82l0 540.87 31.82 0 0 -469.09c0,-27.4 41.67,-27.4 41.67,0l0 469.09 246.64 0c11.5,0 20.83,9.33 20.83,20.83 0,100.72 -82.33,183.04 -183.04,183.04 -155.81,0 -311.61,0 -467.41,0 -100.72,0 -183.05,-82.32 -183.05,-183.04 0,-11.5 9.33,-20.83 20.83,-20.83 143.35,0 286.7,0 430.05,0zm-122.34 41.66l0 120.55 321.92 0c69.77,0 129.54,-51.74 139.83,-120.55l-461.75 0zm-41.66 120.55l0 -120.55 -32.29 0 0 120.55 32.29 0zm-73.95 0l0 -120.55 -169.72 0c10.29,68.81 70.07,120.55 139.84,120.55l29.88 0zm237.95 -312.05l0 -341.79 -351.37 341.79 351.37 0z"/></g></svg>